# xmcd CD database file
#
# Track frame offsets:
#	150
#	21921
#	45271
#	71069
#	98016
#	125303
#	151102
#	169046
#	190801
#	213425
#	234880
#	259368
#	287067
#	311669
#	341524
#
# Disc length: 4730 seconds
#
# Revision: 0
# Processed by: cddbd v1.5.2PL0 Copyright (c) Steve Scherf et al.
# Submitted via: CDex 1.70beta2
#
DISCID=c912780f
DTITLE=Agatha Christie - Hercule Poirots Weihnachten
DYEAR=2009
DGENRE=Hoerbuch
TTITLE0=39
TTITLE1=40
TTITLE2=41
TTITLE3=42
TTITLE4=43
TTITLE5=44
TTITLE6=45
TTITLE7=46
TTITLE8=47
TTITLE9=48
TTITLE10=49
TTITLE11=50
TTITLE12=51
TTITLE13=52
TTITLE14=53
EXTD=YEAR: 2009
EXTT0=
EXTT1=
EXTT2=
EXTT3=
EXTT4=
EXTT5=
EXTT6=
EXTT7=
EXTT8=
EXTT9=
EXTT10=
EXTT11=
EXTT12=
EXTT13=
EXTT14=
PLAYORDER=
